<svg version="1" xmlns="http://www.w3.org/2000/svg" width="1333.333" height="1333.333" viewBox="0 0 1000.000000 1000.000000"><path d="M496 2c-1.9.3-21 6.9-42.5 14.4-56.6 20.1-65 23.1-85 30.1C358.6 50 344 55.2 336 58c-8 2.8-15.6 5.5-17 6-1.4.4-8.8 3.1-16.5 5.8-7.7 2.7-26.4 9.3-41.5 14.7-37.6 13.2-57.7 20.3-62.5 22.2-2.2.8-4.7 1.7-5.5 1.8-.8.2-5.3 1.8-10 3.5s-13.4 4.9-19.5 7c-20 6.9-88.2 31.1-102.5 36.3-13 4.7-17.5 8.4-20.9 17.2-1.9 4.8-2.1 11.1-.7 23 .2 1.6.7 5.7 1 9 .4 3.3.9 7.3 1.1 9 .2 1.6.9 7.7 1.5 13.5.5 5.8 1.2 11.6 1.4 13 .3 1.4.7 5.6 1.1 9.5.3 3.8.8 8.3 1.1 10 .4 3.4 1.2 10.4 2 18.5.2 3 .6 6.6.9 8 .2 1.4.6 5.4 1 9 .3 3.6.8 8.1 1 10 .3 1.9.7 6.2 1 9.5.3 3.3.7 7.1 1 8.5.2 1.4.7 5.2 1 8.5.3 3.3.8 7.3 1 9 .2 1.6.6 5.9 1 9.5.3 3.6.8 7.4 1 8.5.2 1.1.7 5.6 1 10 .4 4.4.8 8.7 1 9.5.2.8.7 4.6 1 8.5.4 3.8.8 7.7 1 8.5.2.8.7 5.1 1.1 9.5.3 4.4.8 8.8 1 9.8.2 1 .6 4.8.9 8.5.4 3.7.8 7.8 1 9.2.2 1.4.7 5.2 1 8.5.4 3.3.8 7.6 1 9.5.5 3.8.5 4.1 3.5 33 1.1 10.7 2.2 20.8 2.5 22.5.2 1.6 1.1 9.5 2 17.5.9 8 1.8 15.8 2 17.5.2 1.6.7 5.9 1 9.5.4 3.6.8 7.6 1 9 .2 1.4.6 5 1 8 .3 3 .8 7.1 1 9 .2 1.9.7 6.4 1.1 10 .3 3.6.8 7.6.9 9 .2 1.4.6 5.6 1 9.5.3 3.8.8 7.7 1 8.5.2.8.7 4.9 1 9 .4 4.1.9 8.3 1 9.2.2.9.6 4.8 1 8.5.3 3.7.8 8.1 1 9.8.2 1.6.7 5.7 1 9 .3 3.3.8 7.1 1 8.5.3 1.4.7 5.6 1 9.5.4 3.8.8 8.1 1 9.5.2 1.4.7 5.2 1 8.5.3 3.3.8 7.7 1.1 9.7.2 2.1.6 5.5.8 7.5.3 2.1.8 6.5 1.1 9.8.3 3.3.8 7.1 1 8.5.2 1.4.7 5.4 1 9 .3 3.6.7 7.4.9 8.5.2 1.1.7 5.6 1 10 1.2 13.5 3.3 19.3 9.1 24.8 2.8 2.6 30 18.2 78.5 44.9 2.5 1.4 6.8 3.8 9.5 5.3 7.1 3.9 67.1 37.2 72.5 40.2 9.9 5.6 31.8 17.7 36.5 20.3 5.5 3 28.3 15.7 35.5 19.7 9.7 5.5 40.8 22.7 45.5 25.3 2.8 1.5 11.3 6.2 19 10.5 7.7 4.3 19.6 11 26.5 14.8 6.9 3.8 14.3 7.9 16.5 9.2 2.2 1.2 7.6 4.2 12 6.6 4.4 2.4 8.7 4.8 9.7 5.4.9.5 5 2.7 9 4.9 4 2.1 7.8 4.3 8.5 4.8.6.5 4.5 1.2 8.5 1.5l7.3.5 12-6.2c6.6-3.4 14.7-7.8 18-9.7 3.3-1.9 6.8-3.5 7.7-3.6.9-.1 1.5-.3 1.3-.6-.9-.8 11.5-7.2 12.5-6.6.6.4.9.2.8-.4-.2-.7 3-2.9 7.1-5.1 4-2.2 15.3-8.5 25-13.9s19.6-11 22.1-12.4c4.9-2.6 56.3-31.2 62-34.4 1.9-1.1 7.1-3.9 11.5-6.3 8.4-4.6 17-9.4 19.5-11 .8-.5 3.8-2.1 6.5-3.5 2.8-1.4 7.5-4 10.6-5.8 3.1-1.8 9-5 13-7.3 4.1-2.3 9.4-5.2 11.9-6.6 2.5-1.4 7.2-4 10.5-5.8 10-5.6 14.8-8.2 19-10.6 2.2-1.3 6.5-3.6 9.5-5.1 3-1.6 6.1-3.3 6.8-4 .6-.6 2.2-1.5 3.5-1.9 1.2-.3 3.3-1.4 4.7-2.4 1.4-1 5-3.1 8-4.7s13.5-7.4 23.3-12.9c9.8-5.4 20.4-11.3 23.5-13 11-5.9 17.7-9.8 21.2-11.9 1.9-1.2 4.4-2.5 5.5-2.9 3.2-1 8.9-6.7 11.7-11.6 2.5-4.3 2.9-6 4.3-19.5.4-3.3.9-7.1 1.1-8.5.2-1.4.6-5.7.9-9.5.3-3.9.8-7.7 1-8.5.2-.8.7-4.9 1-9 .4-4.1.9-7.9 1.2-8.3.3-.4.6-3.8.8-7.5.4-6.7 1.1-14.6 2.1-21.2.3-1.9.7-5.5.9-8 .4-6.1 1.5-16 2-19 .2-1.4.7-5.7 1-9.5.4-3.9.8-7.7 1-8.5.3-1.3.8-5.4 2-17 .2-1.4.6-5.8 1-9.9.4-4.1.8-8.2 1-9.1.2-.9.6-5 1-9.1.3-4.1.8-8.5 1-9.9.2-1.4.6-5 1-8 .3-3 .8-7.1 1-9 .3-1.9.7-6 1-9 .7-7.7 1.6-15 2-18 .2-1.4.6-5 1-8 .3-3 .8-7.1 1-9 .2-1.9.9-8 1.5-13.5 1.1-10.9 1.4-13.5 3-27 .6-5 1.5-13.7 2-19.5.6-5.8 1.2-11.9 1.4-13.5.3-1.7.7-6.2 1.1-10 .3-3.9.8-8.1 1-9.5.3-1.4.7-5.2 1-8.5.3-3.3.8-7.6 1-9.5.3-1.9.7-6.2 1.1-9.5.3-3.3.8-7.1.9-8.5.2-1.4.8-7.2 1.4-13 1.3-12 2.1-18.8 3.6-32 .2-1.9.7-6.2 1-9.5.3-3.3.8-7.6 1-9.5 1.1-8.3 1.6-13.1 3-26 .8-8 1.7-15.8 2-18 .2-1.4.7-5.4 1-9 .3-3.6.7-7.6.9-9 .3-1.4.7-5.4 1-9 .4-3.6.8-7.6 1-9 .3-1.4.7-5.7 1.1-9.5.3-3.9.8-8.4 1-10 .6-4.7 2.7-22.6 3-26.5.2-1.9.7-6.4 1.1-10 1.3-9.9.9-17.4-1-22.4-2.1-5.4-9.5-12.5-15.2-14.4-2.1-.8-9.3-3.3-15.9-5.7-6.6-2.4-15.9-5.7-20.7-7.4-4.9-1.7-12.5-4.4-17-6-25.8-9.2-41.5-14.8-51.3-18.1-6-2.1-16.2-5.7-22.5-8-6.3-2.3-14-5-17-6s-11.1-3.9-18-6.3c-6.9-2.5-28.7-10.2-48.5-17.2-19.8-6.9-42.7-15-51-18-8.2-2.9-22.9-8.1-32.5-11.5-9.6-3.4-20.4-7.2-24-8.5-3.6-1.3-12.6-4.4-20-7-7.4-2.6-15.1-5.3-17-6.1-6.3-2.5-78.4-27.6-81.5-28.4-5.8-1.5-8-1.7-11.5-1z"/></svg>